<mxfile host="app.diagrams.net" modified="2023-10-22T05:13:47.636Z" agent="Mozilla/5.0 (Windows NT 10.0; Win64; x64) AppleWebKit/537.36 (KHTML, like Gecko) Chrome/118.0.0.0 Safari/537.36" etag="XE-DPTlVn-8ifHDp1_xT" version="22.0.6" type="github">
  <diagram name="第 1 页" id="7kd5joYrSZXjuvtQCRew">
    <mxGraphModel dx="4941" dy="1585" grid="1" gridSize="10" guides="1" tooltips="1" connect="1" arrows="1" fold="1" page="1" pageScale="1" pageWidth="1169" pageHeight="827" math="0" shadow="0">
      <root>
        <mxCell id="0" />
        <mxCell id="1" parent="0" />
        <mxCell id="qmR3wCavuqO_SwzsPEjH-1" value="&lt;font size=&quot;1&quot; style=&quot;&quot;&gt;&lt;b style=&quot;font-size: 22px;&quot;&gt;會員&lt;/b&gt;&lt;/font&gt;" style="rounded=0;whiteSpace=wrap;html=1;strokeWidth=3;fillColor=none;strokeColor=#FFC061;" vertex="1" parent="1">
          <mxGeometry x="-2187" y="-570" width="127" height="60" as="geometry" />
        </mxCell>
        <mxCell id="qmR3wCavuqO_SwzsPEjH-2" value="&lt;font style=&quot;font-size: 22px;&quot;&gt;&lt;b&gt;&lt;u&gt;會員編號&lt;/u&gt;&lt;/b&gt;&lt;/font&gt;" style="ellipse;whiteSpace=wrap;html=1;strokeWidth=3;strokeColor=#FFC061;" vertex="1" parent="1">
          <mxGeometry x="-2210" y="-430" width="150" height="70" as="geometry" />
        </mxCell>
        <mxCell id="qmR3wCavuqO_SwzsPEjH-3" value="&lt;font style=&quot;font-size: 22px;&quot;&gt;&lt;b&gt;姓名&lt;/b&gt;&lt;/font&gt;" style="ellipse;whiteSpace=wrap;html=1;strokeWidth=3;strokeColor=#FFC061;" vertex="1" parent="1">
          <mxGeometry x="-2380" y="-520" width="150" height="70" as="geometry" />
        </mxCell>
      </root>
    </mxGraphModel>
  </diagram>
</mxfile>
